<?xml version="1.0" encoding="UTF-8"?><!DOCTYPE svg PUBLIC "-//W3C//DTD SVG 1.1//EN" "http://www.w3.org/Graphics/SVG/1.1/DTD/svg11.dtd"><svg xmlns="http://www.w3.org/2000/svg" xmlns:xlink="http://www.w3.org/1999/xlink" version="1.1" id="Layer_1" x="0px" y="0px" width="72px" height="72px" viewBox="0 0 72 72" xml:space="preserve"><path fill="#868686" d="M44.319 32.414a9.012 9.012 0 0 0-8.056 5 7.008 7.008 0 0 0-6.944 7c0 3.716 3.023 6.257 5.866 6.762 2.196.39 4.727.571 7.967.571 3.221 0 5.312-.021 7.63-.44 4.093-.739 4.704-3.642 4.704-5.306 0-1.728-.83-3.317-2.171-4.319.003-.089.004-.179.004-.268 0-4.962-4.037-9-9-9z"/><path fill="#E6E6E6" d="M51.183 42.789a7 7 0 0 0-6.863-8.375c-3.234 0-5.948 2.196-6.752 5.176a4.947 4.947 0 0 0-1.248-.176 5 5 0 0 0-5 5c0 2.762 2.341 4.46 4.216 4.792 1.875.333 4.242.54 7.617.54s5.195-.032 7.274-.408c2.079-.376 3.059-1.453 3.059-3.338a3.4 3.4 0 0 0-2.303-3.211z"/><path fill="#FFF" d="M36.319 41.499c.434 0 .847.073 1.248.176a6.996 6.996 0 0 1 6.752-5.176c3.511 0 6.408 2.586 6.914 5.955.051-.34.086-.685.086-1.04a7 7 0 0 0-7-7c-3.234 0-5.948 2.196-6.752 5.176a4.947 4.947 0 0 0-1.248-.176 5 5 0 0 0-5 5c0 .361.044.702.118 1.026a4.998 4.998 0 0 1 4.882-3.941z"/><g><path fill="#FFDA69" d="M36.268 30.095c.209-5.167-3.602-9.558-8.647-10.172 1.854 3.189 2.183 7.198.517 10.801-1.59 3.438-4.639 5.727-8.069 6.498a9.804 9.804 0 0 0 5.954 2.324c5.439.219 10.025-4.012 10.245-9.451z"/></g><metadata><rdf:RDF xmlns:rdf="http://www.w3.org/1999/02/22-rdf-syntax-ns#" xmlns:rdfs="http://www.w3.org/2000/01/rdf-schema#" xmlns:dc="http://purl.org/dc/elements/1.1/"><rdf:Description about="https://iconscout.com/legal#licenses" dc:title="light,cloud,weather" dc:description="light,cloud,weather" dc:publisher="Iconscout" dc:date="2017-09-19" dc:format="image/svg+xml" dc:language="en"><dc:creator><rdf:Bag><rdf:li>Amedia Utvikling</rdf:li></rdf:Bag></dc:creator></rdf:Description></rdf:RDF></metadata></svg>