<?xml version="1.0" encoding="UTF-8"?><!DOCTYPE svg PUBLIC "-//W3C//DTD SVG 1.1//EN" "http://www.w3.org/Graphics/SVG/1.1/DTD/svg11.dtd"><svg xmlns="http://www.w3.org/2000/svg" xmlns:xlink="http://www.w3.org/1999/xlink" version="1.1" id="Layer_1" x="0px" y="0px" width="72px" height="72px" viewBox="0 0 72 72" xml:space="preserve"><path fill="#FFAA45" d="M42.693 45.897l-2 6h5l-2 6 8-9h-4l2-3z"/><path fill="#45ABFF" d="M35.66 49.147c-.955 0-1.733.769-1.75 1.72a1.749 1.749 0 0 0-1.75 3.03 1.752 1.752 0 0 0-.614 2.375 1.753 1.753 0 0 0 2.364.656 1.751 1.751 0 0 0 3.5 0 1.754 1.754 0 0 0 2.364-.657c.477-.826.2-1.885-.615-2.374a1.752 1.752 0 0 0 .614-2.375 1.753 1.753 0 0 0-2.364-.655 1.75 1.75 0 0 0-1.749-1.72z"/><path fill="#868686" d="M43.842 25.502c-3.586 0-6.83 1.837-8.681 4.801a7.509 7.509 0 0 0-7.735 3.851 5.936 5.936 0 0 0-5.62 5.921c0 2.936 2.18 5.25 5.554 5.893 2.206.421 5.395.577 11.768.577 6.022 0 9.859-.302 12.019-.555 3.172-.372 5.303-2.591 5.303-5.522a5.491 5.491 0 0 0-2.359-4.52l.002-.194c-.001-5.654-4.599-10.252-10.251-10.252z"/><path fill="#45ABFF" d="M26.107 58.804a1 1 0 0 1-.936-1.351l.75-2a1 1 0 0 1 1.873.703l-.75 2a1.002 1.002 0 0 1-.937.648z"/><path fill="#45ABFF" d="M28.357 52.804a1 1 0 0 1-.936-1.351l.75-2a1 1 0 0 1 1.873.703l-.75 2a1.002 1.002 0 0 1-.937.648z"/><path fill="#E6E6E6" d="M51.971 37.11a8.32 8.32 0 0 0 .121-1.357 8.248 8.248 0 1 0-15.897-3.088 5.498 5.498 0 0 0-7.479 3.619 3.873 3.873 0 0 0-.981-.139 3.929 3.929 0 0 0-3.929 3.929c0 2.17 1.744 3.512 3.929 3.929s5.518.542 11.393.542 9.655-.292 11.786-.542c2.131-.25 3.536-1.583 3.536-3.536a3.524 3.524 0 0 0-2.479-3.357z"/><path fill="#FFF" d="M27.735 38.179c.341 0 .666.057.981.138a5.497 5.497 0 0 1 7.479-3.619 8.247 8.247 0 0 1 7.647-5.162c4.203 0 7.664 3.144 8.177 7.207a7.72 7.72 0 0 0 .073-.992 8.248 8.248 0 1 0-15.897-3.088 5.498 5.498 0 0 0-7.479 3.619 3.872 3.872 0 0 0-.981-.138 3.929 3.929 0 0 0-3.929 3.929c0 .36.064.689.154 1.004.456-1.666 1.964-2.898 3.775-2.898z"/><path fill="#FFF" d="M38.633 54.748l-1.473-.851 1.473-.851a.75.75 0 1 0-.75-1.298l-1.473.851v-1.701a.75.75 0 0 0-1.5 0v1.701l-1.473-.851a.75.75 0 0 0-.75 1.298l1.473.851-1.473.851a.75.75 0 1 0 .751 1.298l1.473-.851v1.701a.75.75 0 0 0 1.5 0v-1.701l1.473.851a.75.75 0 1 0 .749-1.298z"/><g><path fill="#FFDA69" d="M31.775 24.752c.209-5.167-3.602-9.558-8.647-10.172 1.854 3.189 2.183 7.198.517 10.801-1.59 3.438-4.639 5.727-8.069 6.498a9.804 9.804 0 0 0 5.954 2.324c5.439.218 10.026-4.012 10.245-9.451z"/></g><metadata><rdf:RDF xmlns:rdf="http://www.w3.org/1999/02/22-rdf-syntax-ns#" xmlns:rdfs="http://www.w3.org/2000/01/rdf-schema#" xmlns:dc="http://purl.org/dc/elements/1.1/"><rdf:Description about="https://iconscout.com/legal#licenses" dc:title="light,sleet,thunder,sun,weather" dc:description="light,sleet,thunder,sun,weather" dc:publisher="Iconscout" dc:date="2017-09-19" dc:format="image/svg+xml" dc:language="en"><dc:creator><rdf:Bag><rdf:li>Amedia Utvikling</rdf:li></rdf:Bag></dc:creator></rdf:Description></rdf:RDF></metadata></svg>